<svg width="62.256" height="54.359" version="1.1" viewBox="0 0 62.256001 54.359001" xmlns="http://www.w3.org/2000/svg">
 <defs>
  <style>.cls-1{fill:#1697f6;}.cls-2{fill:#7bc6ff;}.cls-3{fill:#1867c0;}.cls-4{fill:#aeddff;}</style>
 </defs>
 <title>Artboard 46</title>
 <g>
  <g transform="matrix(1 0 0 .98381 -18.39 -26.018)" fill="#1697f6">
   <path d="m80.646 63.907q0 2.5521-1.276 5.5417-1.2396 2.9531-3.9375 5.8333-2.6979 2.8438-6.8906 4.6302-4.1927 1.7865-9.7708 1.7865-4.2292 0-7.6927-0.80208-3.4635-0.80208-6.3073-2.4792-2.8073-1.7135-5.1771-4.4844-2.1146-2.5156-3.6094-5.6146-1.4948-3.1354-2.2604-6.6719-0.72917-3.5365-0.72917-7.5104 0-6.4531 1.8594-11.557 1.8958-5.1042 5.3958-8.7135 3.5-3.6458 8.2031-5.5417 4.7031-1.8958 10.026-1.8958 6.4896 0 11.557 2.5885 5.0677 2.5885 7.7656 6.4167 2.6979 3.7917 2.6979 7.1823 0 1.8594-1.3125 3.2812t-3.1719 1.4219q-2.0781 0-3.1354-0.98438-1.0208-0.98438-2.2969-3.3906-2.1146-3.974-4.9948-5.9427-2.8438-1.9688-7.0365-1.9688-6.6719 0-10.646 5.0677-3.9375 5.0677-3.9375 14.401 0 6.2344 1.75 10.391 1.75 4.1198 4.9583 6.1615 3.2083 2.0417 7.5104 2.0417 4.6667 0 7.875-2.2969 3.2448-2.3333 4.8854-6.8177 0.69271-2.1146 1.7135-3.4271 1.0208-1.349 3.2812-1.349 1.9323 0 3.3177 1.349 1.3854 1.349 1.3854 3.3542z" fill="#1697f6"/>
  </g>
  <g transform="translate(-18.39 -27.34)" fill="#1867c0">
   <path d="m33.01 57.929h-3.7917v17.172q0 3.3906-1.4948 4.9948-1.4948 1.6042-3.901 1.6042-2.5885 0-4.0104-1.6771-1.4219-1.6771-1.4219-4.9219v-41.125q0-3.5 1.5677-5.0677 1.5677-1.5677 5.0677-1.5677h17.609q3.6458 0 6.2344 0.32812 2.5885 0.29167 4.6667 1.2396 2.5156 1.0573 4.4479 3.026 1.9323 1.9688 2.9167 4.5938 1.0208 2.5885 1.0208 5.5052 0 5.9792-3.3906 9.5521-3.3542 3.5729-10.208 5.0677 2.8802 1.5312 5.5052 4.5208 2.625 2.9896 4.6667 6.3802 2.0781 3.3542 3.2083 6.0885 1.1667 2.6979 1.1667 3.7188 0 1.0573-0.69271 2.1146-0.65625 1.0208-1.8229 1.6042-1.1667 0.61979-2.6979 0.61979-1.8229 0-3.0625-0.875-1.2396-0.83854-2.151-2.151-0.875-1.3125-2.4062-3.8646l-4.3385-7.2188q-2.3333-3.974-4.1927-6.0521-1.8229-2.0781-3.7188-2.8438t-4.776-0.76562zm6.1979-22.458h-9.9896v14.693h9.6979q3.901 0 6.5625-0.65625 2.6615-0.69271 4.0469-2.2969 1.4219-1.6406 1.4219-4.4844 0-2.224-1.1302-3.901-1.1302-1.7135-3.1354-2.5521-1.8958-0.80208-7.474-0.80208z" fill="#1867c0"/>
  </g>
  <g transform="matrix(1 0 0 .95785 -7.4865 -37.762)" fill="#1697f6">
   <path d="m32.049 59.946c0.25188-2.899-8.6898-1.8025-7.8018-4.24 1.2639-3.4028 2.8109-6.4386 5.1443-8.8449 2.3333-2.4306 5.0677-4.2778 8.2031-5.5417 3.1354-1.2639 6.4774-1.8955 10.026-1.8955 4.3264 0 8.1788 0.86256 11.557 2.5883 3.3785 1.7257 5.967 3.8646 7.7656 6.4167 1.7986 2.5278 2.6979 4.9219 2.6979 7.1823 0 1.2396-0.4375 2.3333-1.3125 3.2812s-1.9323 1.4219-3.1719 1.4219c-1.3854 0-2.4306-0.32812-3.1354-0.98438-0.68056-0.65625-1.4462-1.7865-2.2969-3.3906-1.4097-2.6493-3.0746-4.6302-4.9948-5.9427-1.8958-1.3125-4.2413-1.9688-7.0365-1.9688-4.4479 0-8.2481 2.2309-10.897 5.6094-2.2444 3.1436-4.3313 2.7626-4.7471 6.3088z" fill="#1697f6"/>
  </g>
 </g>
</svg>
