<?xml version="1.0" encoding="UTF-8" standalone="no"?>
<!-- Created with Inkscape (http://www.inkscape.org/) -->

<svg
   width="129.09567mm"
   height="79.148697mm"
   viewBox="0 0 129.09567 79.148697"
   version="1.1"
   id="svg5"
   inkscape:version="1.1.1 (3bf5ae0d25, 2021-09-20)"
   sodipodi:docname="coach-category-shock.svg"
   xmlns:inkscape="http://www.inkscape.org/namespaces/inkscape"
   xmlns:sodipodi="http://sodipodi.sourceforge.net/DTD/sodipodi-0.dtd"
   xmlns="http://www.w3.org/2000/svg"
   xmlns:svg="http://www.w3.org/2000/svg">
  <sodipodi:namedview
     id="namedview7"
     pagecolor="#ffffff"
     bordercolor="#666666"
     borderopacity="1.0"
     inkscape:pageshadow="2"
     inkscape:pageopacity="0.0"
     inkscape:pagecheckerboard="0"
     inkscape:document-units="mm"
     showgrid="false"
     inkscape:zoom="1.5554293"
     inkscape:cx="-138.54696"
     inkscape:cy="255.55646"
     inkscape:window-width="3840"
     inkscape:window-height="1521"
     inkscape:window-x="-9"
     inkscape:window-y="-9"
     inkscape:window-maximized="1"
     inkscape:current-layer="layer1"
     fit-margin-top="0"
     fit-margin-left="0"
     fit-margin-right="0"
     fit-margin-bottom="0" />
  <defs
     id="defs2" />
  <g
     inkscape:label="Layer 1"
     inkscape:groupmode="layer"
     id="layer1"
     transform="translate(-4.0144062,-3.1150951)">
    <ellipse
       style="fill:none;stroke:#999999;stroke-width:5.82432;stroke-linecap:round;stroke-linejoin:round;stroke-miterlimit:4;stroke-dasharray:none;stroke-opacity:1;paint-order:markers fill stroke"
       id="path858"
       cx="114.61008"
       cy="63.250076"
       rx="15.587838"
       ry="15.587837" />
    <ellipse
       style="fill:none;stroke:#000000;stroke-width:7.52507;stroke-linecap:round;stroke-linejoin:round;stroke-miterlimit:4;stroke-dasharray:none;stroke-opacity:1;paint-order:markers fill stroke"
       id="path858-1"
       cx="24.014408"
       cy="62.263786"
       rx="16.237467"
       ry="16.237469" />
    <rect
       style="fill:#999999;fill-opacity:1;stroke:none;stroke-width:7.224;stroke-linecap:round;stroke-linejoin:round;stroke-miterlimit:4;stroke-dasharray:none;stroke-opacity:1;paint-order:fill markers stroke"
       id="rect1664"
       width="4.2262392"
       height="61.898647"
       x="71.673615"
       y="46.32386"
       transform="rotate(-26)"
       ry="0.12946075" />
    <path
       style="fill:#999999;fill-opacity:1;stroke:none;stroke-width:0.264583px;stroke-linecap:butt;stroke-linejoin:miter;stroke-opacity:1"
       d="m 91.473738,12.870073 8.780512,12.990352 10.16375,-0.601405 10.22389,3.909133 3.36787,2.706325 -0.36084,0.661546 -10.16375,-3.187449 -12.99035,0.180422 -5.17209,3.307728 -4.209836,6.435037 -2.946886,6.675599 -1.683933,-0.661545 2.5259,-7.878411 3.909134,-7.517564 -10.46445,-9.201501 z"
       id="path2205"
       sodipodi:nodetypes="cccccccccccccccc" />
    <rect
       style="fill:#000000;fill-opacity:1;stroke:none;stroke-width:7.224;stroke-linecap:round;stroke-linejoin:round;stroke-miterlimit:4;stroke-dasharray:none;stroke-opacity:1;paint-order:markers fill stroke"
       id="rect2512"
       width="40.229378"
       height="4.9329896"
       x="6.5037708"
       y="63.9081"
       transform="rotate(-13)"
       ry="0.36964557" />
    <rect
       style="fill:#000000;fill-opacity:1;stroke:none;stroke-width:7.224;stroke-linecap:round;stroke-linejoin:round;stroke-miterlimit:4;stroke-dasharray:none;stroke-opacity:1;paint-order:markers fill stroke"
       id="rect2512-1"
       width="16.362123"
       height="2.5059381"
       x="-20.371655"
       y="65.611122"
       transform="rotate(-57)"
       ry="0.36964557" />
    <rect
       style="fill:#000000;fill-opacity:1;stroke:none;stroke-width:7.224;stroke-linecap:round;stroke-linejoin:round;stroke-miterlimit:4;stroke-dasharray:none;stroke-opacity:1;paint-order:markers fill stroke"
       id="rect2512-1-7"
       width="17.077358"
       height="4.4078679"
       x="-16.829521"
       y="64.649788"
       transform="rotate(-57)"
       ry="0.36964557" />
    <path
       style="fill:#999999;fill-opacity:1;stroke:#999999;stroke-width:0.265;stroke-linecap:round;stroke-linejoin:round;stroke-miterlimit:4;stroke-dasharray:none;stroke-opacity:1;paint-order:normal"
       d="m 88.525383,8.3633026 0.873508,-1.9884067 -0.841967,-3.1273072 -3.217519,1.7440751 -3.848991,0.451054 -0.541267,1.5937238 1.02239,1.1727402 2.525903,0.6615459 0.229423,1.3452373 3.79852,-1.8526624"
       id="path2777" />
    <path
       style="fill:#000000;fill-opacity:1;stroke:none;stroke-width:0.264583px;stroke-linecap:butt;stroke-linejoin:miter;stroke-opacity:1"
       d="m 43.546392,55.793814 c 0,0 0.04253,-3.82732 0.29768,-3.82732 0.255153,0 1.573453,-0.59536 1.573453,-0.59536 l 2.849227,3.52964 z"
       id="path3663" />
    <path
       style="fill:#999999;fill-opacity:1;stroke:none;stroke-width:0.264583px;stroke-linecap:butt;stroke-linejoin:miter;stroke-opacity:1"
       d="m 8.5399546,19.846373 21.5303084,1.08253 29.468855,3.127307 22.011433,-5.773491 14.193163,10.103609 -7.216862,6.9763 -0.841968,8.179112 -2.646182,-1.202811 -4.57068,15.275694 -2.646183,3.728712 -3.848994,1.683936 L 62.305583,63.267833 56.17125,60.621647 53.043944,55.810406 53.404785,47.029891 43.902582,44.503988 38.008811,43.782302 15.877098,29.228296 14.313445,24.296772 21.289746,22.612837 9.5006159,21.086569 Z"
       id="path1239"
       sodipodi:nodetypes="cccccccccccccccccccccc" />
  </g>
</svg>
