<?xml version="1.0" encoding="UTF-8" standalone="no"?>
<svg
   xmlns:dc="http://purl.org/dc/elements/1.1/"
   xmlns:cc="http://creativecommons.org/ns#"
   xmlns:rdf="http://www.w3.org/1999/02/22-rdf-syntax-ns#"
   xmlns:svg="http://www.w3.org/2000/svg"
   xmlns="http://www.w3.org/2000/svg"
   xmlns:sodipodi="http://sodipodi.sourceforge.net/DTD/sodipodi-0.dtd"
   xmlns:inkscape="http://www.inkscape.org/namespaces/inkscape"
   version="1.1"
   id="Layer_1"
   x="0px"
   y="0px"
   viewBox="0 0 2664.398 1511.904"
   enable-background="new 0 0 2664.398 1511.904"
   xml:space="preserve"
   sodipodi:docname="motorbike-icon-front.svg"
   inkscape:version="0.92.0 r15299"><metadata
   id="metadata4496"><rdf:RDF><cc:Work
       rdf:about=""><dc:format>image/svg+xml</dc:format><dc:type
         rdf:resource="http://purl.org/dc/dcmitype/StillImage" /><dc:title></dc:title></cc:Work></rdf:RDF></metadata><defs
   id="defs4494" /><sodipodi:namedview
   pagecolor="#ffffff"
   bordercolor="#666666"
   borderopacity="1"
   objecttolerance="10"
   gridtolerance="10"
   guidetolerance="10"
   inkscape:pageopacity="0"
   inkscape:pageshadow="2"
   inkscape:window-width="1280"
   inkscape:window-height="920"
   id="namedview4492"
   showgrid="false"
   inkscape:zoom="0.20567789"
   inkscape:cx="1318.7743"
   inkscape:cy="402.33649"
   inkscape:window-x="-8"
   inkscape:window-y="-8"
   inkscape:window-maximized="1"
   inkscape:current-layer="g4489" />
<g
   id="g4489">
	<path
   d="M1884.646,61.923c12.84-12.452,24.387-28.868,43.258-32.099c15.468-1.767,28.868,8.316,40.372,17.364   c59.107,48.395,234.412,195.204,282.99,255.328c48.301,52.002,126.11,153.449,95.996,217.8   c-17.234,20.466-46.361,23.223-70.79,29.342c-81.864,15.339-164.029,36.365-236.5,78.675c9.867,25.162,26.972,46.662,42.052,68.852   c209.253-107.947,479.646-6.848,524.186,221.506c43.37,235.831-154.024,437.092-381.398,442.322   c-165.091,4.873-309.297-96.506-349.17-246.711c-20.897-80.183-10.771-167.691,27.144-241.282   c24.516-50.928,62.906-93.54,104.527-131.111c-11.245-20.768-24.516-40.329-37.83-59.847c-4.61,1.939-9.479,3.447-13.529,6.377   c-66.482,52.479-119.521,123.916-142.486,206.081c-25.248,87.249-24.731,183.288,9.608,267.996   c8.66,22.491,23.439,41.708,33.995,63.207c-58.148,7.018-924.072,67.075-984.561,68.334c27.101-42.784,51.359-87.982,63.94-137.401   c17.708-67.085,20.681-138.134,7.626-206.339c-35.245,12.064-70.144,25.292-104.656,39.295   c68.617,288.728-217.709,543.828-496.438,484.374c-163.378-30.735-288.452-167.818-290.616-335.081   c-8.232-264.148,270.332-472.44,534.871-400.873c91.73,24.516,174.542,85.181,219.782,169.415   c3.447,9.867,15.037,5.73,22.189,3.275c444.274-166.021,1104.557-419.439,1171.469-447.794   c31.668-13.572,60.191-33.952,84.406-58.382c13.744-13.96,23.18-33.995,20.078-53.858c-4.179-20.25-19.69-35.158-32.832-50.109   c-20.466-22.405-38.907-47.309-63.293-65.663c-37.011-19.863-80.183-5.817-119.779-8.359   c-15.554-10.255-28.049-24.344-42.569-35.977c-12.969-11.935-27.963-21.758-39.338-35.331c-0.862-10.858,9.091-18.355,15.209-26.11   C1844.188,107.594,1862.802,83.25,1884.646,61.923 M2144.412,797.704c41.793,64.586,82.381,129.905,124.217,194.491   c6.851,10.211,12.495,22.103,9.436,34.771c-2.327,26.067-32.487,41.535-56.098,33.65c-22.162-5.163-20.203-21.19-149.121-215.732   c-89.417,73.825-117.524,219.658-28.092,319.484c126.796,138.437,360.563,78.215,425.475-90.007   c51.598-133.045-29.392-266.217-160.754-295.398C2254.411,768.32,2195.168,772.8,2144.412,797.704 M200.022,1198.965   c17.579,51.402,57.175,93.023,102.933,120.9c62.001,36.192,139.513,43.215,207.891,22.405   c146.799-42.816,229-190.982,198.885-304.877c-80.83,29.428-161.487,59.286-242.23,88.887   c-19.475,6.506-39.295,18.699-60.536,12.84c-23.74-3.533-32.228-35.503-20.25-54.073c7.109-12.71,21.414-18.139,34.21-23.137   c24.619-8.864,230.166-83.211,261.36-98.107c-34.943-56.098-94.272-96.125-159.16-108.232   C323.052,815.337,130.711,1012.762,200.022,1198.965z"
   id="path4485"
   style="fill:#999999" />
	<path
   d="M1250.979,276.448c51.531-21.845,109.396-27.618,164.589-19.26c120.339,15.08,240.808,28.954,361.191,43.776   c38.993,3.533,72.557,34.124,83.027,71.351c6.937,28.48,3.188,60.795-16.028,83.889c-14.262,19.432-37.528,28.006-59.2,36.192   c-232.493,89.49-465.158,178.463-698.124,266.703c-9.781,3.619-20.595,7.066-30.634,2.197   C506.998,562.688,543.643,577.642,529.545,563.704c-290.814-261.56-278.881-246.368-283.981-258.991   c-6.247-14.563,3.016-34.21,19.173-36.666c26.153-5.386,52.091,4.696,78.029,7.238c105.346,12.926,212.371,11.418,317.631-1.982   c-0.043,37.485,7.325,76.823,30.85,107.069c29.255,38.045,75.702,59.157,122.278,66.31   c90.998,14.865,183.547,23.051,275.751,16.976c9.479-21.715,16.847-44.508,28.868-65.06   C1147.917,345.386,1193.545,298.982,1250.979,276.448z"
   id="path4487"
   style="fill:#999999" />
<path
   inkscape:connector-curvature="0"
   d="m 2039.972,628.333 c 9.867,25.162 26.972,46.662 42.052,68.852 209.253,-107.947 479.646,-6.848 524.186,221.506 43.37,235.8309 -154.024,437.0919 -381.398,442.3219 -165.091,4.873 -309.297,-96.506 -349.17,-246.711 -20.897,-80.183 -10.771,-167.6909 27.144,-241.2819 24.516,-50.928 62.906,-93.54 104.527,-131.111 -11.245,-20.768 -24.516,-40.329 -37.83,-59.847 m 174.929,115.642 c 41.793,64.586 82.381,129.905 124.217,194.491 6.851,10.211 12.495,22.103 9.436,34.771 -2.327,26.0669 -32.487,41.5349 -56.098,33.6499 -22.162,-5.163 -20.203,-21.19 -149.121,-215.7319 -89.417,73.825 -117.524,219.6579 -28.092,319.4839 126.796,138.437 360.563,78.215 425.475,-90.007 C 2521.827,941.316 2440.837,808.144 2309.475,778.963 2254.411,768.32 2195.168,772.8 2144.412,797.704"
   id="path4485-2"
   style="fill:#000000"
   sodipodi:nodetypes="ccccccccccccccccc" /></g>
</svg>